<?xml version="1.0" standalone="no"?>
<!DOCTYPE svg PUBLIC "-//W3C//DTD SVG 20010904//EN"
 "http://www.w3.org/TR/2001/REC-SVG-20010904/DTD/svg10.dtd">
<svg version="1.0" xmlns="http://www.w3.org/2000/svg"
 width="25px" height="25px" viewBox="0 0 1280.000000 1280.000000"
 preserveAspectRatio="xMidYMid meet">

<g transform="translate(0.000000,1280.000000) scale(0.100000,-0.100000)"
fill="#0033CC" stroke="#fff">
<path d="M6140 12794 c-1281 -56 -2530 -496 -3540 -1247 -268 -199 -432 -340
-678 -582 -264 -259 -421 -437 -633 -717 -979 -1299 -1426 -2924 -1248 -4545
124 -1138 548 -2215 1232 -3129 344 -461 816 -936 1272 -1280 461 -348 951
-623 1497 -840 1451 -578 3070 -602 4541 -68 710 258 1337 620 1938 1120 198
164 609 575 773 773 879 1057 1369 2260 1487 3646 17 193 17 757 0 950 -17
209 -55 504 -86 670 -194 1054 -644 2038 -1313 2870 -262 326 -640 703 -972
971 -996 803 -2235 1294 -3520 1394 -146 11 -612 20 -750 14z m4685 -4224 c3
-6 -14 -19 -40 -30 -25 -11 -48 -26 -51 -34 -3 -8 -22 -20 -42 -27 -21 -6 -45
-19 -55 -28 -10 -8 -41 -27 -67 -41 -51 -26 -115 -63 -185 -105 -22 -13 -60
-34 -85 -46 -25 -12 -58 -32 -73 -45 -16 -13 -34 -24 -41 -24 -8 0 -26 -10
-42 -22 -15 -13 -48 -33 -74 -46 -85 -43 -105 -55 -125 -73 -11 -9 -33 -21
-50 -25 -16 -4 -45 -20 -63 -36 -18 -15 -39 -28 -47 -28 -7 0 -26 -10 -42 -23
-15 -12 -44 -30 -63 -40 -19 -10 -57 -31 -85 -47 -27 -16 -70 -39 -95 -51 -25
-12 -49 -28 -55 -34 -10 -12 -136 -85 -234 -135 -27 -14 -58 -33 -68 -42 -10
-8 -29 -19 -43 -23 -14 -4 -34 -16 -46 -26 -21 -20 -79 -53 -144 -84 -19 -9
-44 -25 -55 -35 -11 -10 -37 -23 -57 -30 -21 -6 -38 -16 -38 -21 0 -5 -21 -20
-47 -34 -27 -15 -70 -39 -98 -56 -91 -53 -106 -57 -126 -33 -8 9 -32 25 -54
36 -22 10 -71 37 -110 58 -38 22 -84 46 -102 55 -17 8 -34 19 -38 25 -3 5 -26
18 -50 29 -25 11 -45 24 -45 28 0 21 78 83 110 89 19 4 53 17 75 29 22 12 60
26 85 30 25 4 57 18 72 30 16 14 48 26 80 30 29 4 64 16 77 26 12 10 39 21 60
25 20 3 52 17 71 29 19 13 51 26 70 30 19 4 53 18 75 30 22 13 55 26 74 30 19
4 54 18 79 31 25 13 52 24 61 24 9 0 43 14 76 30 33 17 66 30 75 30 8 0 29 9
47 20 18 10 57 26 88 34 31 8 65 22 74 30 10 9 33 19 52 22 19 4 52 17 74 29
22 12 56 26 75 30 19 4 50 16 69 28 18 11 53 24 77 28 24 5 56 17 71 28 16 11
48 25 73 31 25 7 59 20 75 30 17 10 46 21 65 25 19 4 55 17 80 30 61 31 145
65 200 80 25 7 67 24 94 39 27 14 56 26 64 26 8 0 34 11 56 24 23 13 62 26 87
30 27 4 54 15 64 26 20 22 99 28 110 10z m103 -422 c16 -16 18 -2819 2 -2849
-10 -17 -23 -19 -154 -19 l-144 0 -31 35 c-17 20 -31 43 -31 52 0 9 -11 28
-24 42 -14 15 -29 42 -34 61 -8 31 -12 35 -38 32 -17 -2 -37 -13 -47 -28 -10
-13 -24 -24 -31 -24 -7 0 -22 -13 -34 -30 -13 -16 -28 -30 -36 -30 -7 0 -23
-11 -36 -24 -12 -14 -36 -28 -52 -31 -16 -4 -37 -15 -47 -26 -11 -12 -43 -24
-82 -31 -35 -6 -77 -20 -92 -32 -27 -20 -41 -21 -217 -21 -180 0 -190 1 -219
22 -19 14 -55 27 -97 32 -42 6 -74 17 -88 30 -11 11 -34 23 -51 27 -16 3 -39
15 -50 24 -11 10 -35 25 -53 34 -18 10 -36 24 -39 32 -3 7 -12 14 -21 14 -19
0 -184 165 -205 206 -9 17 -23 34 -31 37 -8 3 -20 25 -27 48 -7 22 -19 43 -26
46 -7 3 -20 30 -29 60 -9 30 -24 63 -33 72 -12 12 -20 41 -24 83 -3 38 -16 84
-28 109 -21 39 -23 56 -23 208 -1 153 1 169 22 209 13 25 25 71 29 114 4 47
12 77 24 89 9 9 24 42 33 72 9 30 22 57 30 60 8 3 17 19 21 35 3 17 18 44 33
61 15 17 37 43 49 58 49 64 106 123 118 123 7 0 20 11 29 25 9 14 23 25 31 25
8 0 22 11 31 25 9 14 22 25 29 25 8 0 27 11 43 25 17 14 51 32 77 40 26 7 55
21 65 30 10 9 44 20 77 25 32 4 77 17 99 29 37 20 58 22 201 22 160 0 185 -3
214 -27 8 -8 46 -18 83 -23 47 -7 74 -16 87 -30 11 -11 37 -25 60 -31 22 -6
42 -17 45 -25 3 -8 15 -17 27 -21 11 -3 45 -31 75 -61 30 -29 57 -51 61 -48 3
4 8 181 11 394 l5 388 30 26 c17 15 38 27 47 27 10 0 33 14 51 30 19 17 43 30
54 30 11 0 30 11 43 25 12 13 39 30 59 36 20 7 41 19 47 28 24 31 110 51 132
29z m-3588 -658 c6 -10 28 -24 50 -30 22 -6 40 -15 40 -21 0 -5 17 -17 38 -25
20 -9 46 -24 57 -34 11 -10 37 -23 58 -30 20 -6 42 -20 47 -30 5 -10 23 -21
40 -25 16 -4 39 -18 50 -32 20 -25 20 -39 20 -1048 0 -988 -1 -1024 -20 -1079
-10 -31 -22 -84 -26 -119 -4 -41 -14 -74 -31 -99 -14 -20 -27 -55 -30 -78 -3
-22 -14 -46 -23 -53 -10 -7 -25 -28 -34 -47 -36 -77 -172 -229 -234 -261 -15
-8 -33 -22 -40 -31 -7 -10 -22 -18 -33 -18 -11 0 -31 -12 -44 -26 -15 -17 -42
-30 -70 -35 -25 -5 -57 -18 -73 -29 -19 -14 -54 -23 -116 -30 -48 -6 -98 -16
-110 -22 -11 -6 -80 -14 -152 -16 -103 -4 -143 -1 -188 12 -32 10 -97 22 -144
27 -62 7 -92 15 -107 29 -11 10 -40 22 -65 26 -25 3 -61 17 -80 30 -19 13 -50
28 -68 35 -17 6 -32 15 -32 20 0 5 -14 16 -31 24 -43 23 -108 74 -151 120 -64
68 -108 122 -108 132 0 6 -11 22 -25 37 -29 31 -31 50 -9 68 8 7 28 25 44 40
16 14 43 29 60 33 17 4 42 18 55 31 13 13 31 24 39 24 8 0 27 11 43 24 15 13
39 27 53 31 14 4 35 18 46 31 16 16 29 21 45 17 29 -7 69 -42 69 -60 0 -23
106 -134 152 -159 15 -8 31 -21 35 -29 5 -8 36 -20 68 -26 33 -6 75 -20 94
-32 30 -18 50 -21 165 -21 123 -1 135 1 188 27 31 15 70 27 87 27 22 0 35 7
47 25 9 14 22 25 29 25 19 0 145 139 145 160 0 10 11 31 23 47 20 23 27 51 41
163 23 188 22 237 -5 245 -16 5 -30 -2 -56 -29 -20 -20 -41 -36 -49 -36 -7 0
-25 -11 -40 -25 -15 -14 -32 -25 -39 -25 -7 0 -30 -12 -51 -27 -23 -15 -61
-30 -91 -34 -28 -4 -65 -17 -83 -31 -31 -22 -38 -23 -225 -23 -186 0 -194 1
-217 22 -16 16 -42 24 -83 29 -36 4 -74 15 -95 29 -19 13 -52 28 -72 35 -21 6
-38 16 -38 21 0 6 -17 17 -37 26 -48 19 -84 49 -178 143 -109 109 -110 111
-133 156 -11 22 -27 46 -35 53 -8 6 -18 27 -21 45 -4 18 -15 41 -26 51 -10 9
-24 42 -31 73 -6 31 -21 69 -32 84 -20 27 -22 44 -25 261 -4 240 6 367 31 395
8 10 20 42 26 73 7 31 21 65 31 74 11 10 22 33 26 51 3 18 15 41 26 51 11 10
26 32 33 49 7 17 22 42 34 55 42 46 110 114 148 147 21 18 51 44 67 58 15 14
41 27 57 31 15 3 35 16 43 28 9 14 30 25 53 30 21 3 47 15 59 26 12 11 47 24
81 29 33 6 82 19 108 31 42 19 62 20 220 17 145 -2 176 -6 192 -20 10 -9 47
-21 82 -27 35 -6 71 -17 80 -26 10 -8 33 -20 52 -26 19 -7 47 -23 62 -36 16
-12 33 -23 38 -23 5 0 27 -16 49 -36 64 -58 70 -49 70 121 0 132 2 147 20 165
26 26 76 26 90 0z m-2663 -95 c23 -3 59 -14 80 -25 21 -11 56 -20 78 -20 28 0
52 -8 74 -24 19 -14 46 -28 61 -31 15 -3 37 -17 49 -30 11 -14 27 -25 34 -25
18 0 137 -124 137 -143 0 -9 11 -24 25 -33 14 -9 25 -22 25 -28 0 -7 13 -32
29 -57 16 -24 32 -66 36 -93 4 -27 16 -62 28 -78 l22 -30 3 -737 c2 -626 1
-740 -11 -750 -10 -8 -78 -11 -238 -9 l-224 3 -5 630 c-5 618 -5 631 -26 675
-12 25 -25 71 -29 102 -4 38 -12 62 -24 70 -10 7 -25 27 -35 45 -9 18 -28 40
-42 50 -14 10 -40 30 -57 44 -26 20 -52 28 -132 39 -122 16 -128 16 -238 -4
-65 -11 -97 -23 -119 -41 -16 -14 -36 -25 -44 -25 -8 0 -20 -11 -26 -25 -6
-13 -19 -27 -29 -30 -11 -4 -23 -23 -29 -46 -6 -22 -17 -42 -25 -45 -36 -14
-39 -53 -43 -737 -4 -664 -4 -668 -25 -687 -19 -19 -36 -20 -241 -20 -122 0
-228 5 -236 10 -13 8 -16 101 -20 704 l-5 694 -22 24 c-13 13 -26 39 -29 57
-4 18 -17 39 -30 48 -13 8 -24 22 -24 29 0 8 -12 20 -27 26 -16 7 -35 20 -43
30 -10 12 -46 22 -114 33 -55 9 -102 18 -106 20 -3 2 -59 -6 -125 -17 -91 -15
-123 -24 -133 -39 -7 -10 -20 -19 -28 -19 -8 0 -31 -19 -52 -41 -20 -23 -49
-53 -63 -68 -17 -17 -28 -43 -33 -73 -4 -26 -14 -55 -22 -63 -9 -8 -20 -30
-25 -47 -5 -19 -9 -302 -9 -658 0 -474 -3 -629 -12 -638 -15 -15 -435 -17
-458 -2 -13 8 -15 132 -15 1018 0 840 2 1012 14 1025 11 14 36 17 160 17 166
0 186 -7 197 -66 3 -19 14 -40 24 -47 17 -12 30 -35 44 -81 6 -18 8 -18 24 -3
9 9 31 27 47 41 17 13 48 40 70 60 23 19 54 38 70 42 17 3 37 16 46 27 11 13
35 22 74 28 31 4 66 16 77 26 18 16 40 18 213 18 165 0 196 -2 211 -16 11 -9
39 -20 64 -24 53 -7 100 -24 100 -35 0 -4 17 -15 38 -24 84 -38 200 -142 217
-196 9 -28 42 -25 68 6 47 56 113 116 144 130 18 8 37 23 43 33 5 11 23 22 39
26 17 3 41 15 55 26 14 11 51 24 82 29 31 5 65 17 76 26 29 27 227 36 395 19z
m3446 -359 c3 -8 23 -20 44 -26 21 -7 51 -23 66 -36 16 -13 35 -24 43 -24 8 0
25 -11 37 -24 12 -13 36 -26 53 -30 17 -4 42 -18 54 -31 12 -13 35 -27 50 -30
15 -3 38 -17 51 -31 l24 -26 3 -722 c2 -465 -1 -733 -8 -750 l-10 -26 -222 0
c-123 0 -230 5 -238 10 -13 8 -15 115 -15 864 0 826 1 855 19 875 22 24 42 27
49 7z"/>
<path d="M9680 6919 c-13 -5 -31 -16 -40 -23 -8 -8 -29 -17 -47 -21 -18 -3
-49 -20 -69 -36 -20 -16 -43 -29 -50 -29 -7 0 -15 -9 -19 -19 -3 -11 -17 -26
-30 -35 -14 -9 -25 -22 -25 -29 0 -8 -11 -23 -25 -35 -14 -12 -25 -28 -25 -35
0 -8 -14 -34 -31 -60 -24 -37 -32 -62 -39 -129 -4 -47 -11 -100 -15 -119 -3
-19 1 -87 9 -152 9 -65 16 -119 16 -121 0 -2 9 -14 21 -27 11 -13 25 -43 32
-66 6 -25 19 -45 28 -48 10 -3 22 -19 28 -35 5 -17 17 -30 26 -30 8 0 20 -11
25 -24 5 -13 19 -27 32 -31 13 -4 32 -16 43 -26 11 -10 38 -25 60 -35 22 -9
44 -23 50 -31 16 -22 209 -36 340 -25 87 7 110 13 128 31 13 11 30 21 39 21 9
0 35 16 58 35 23 19 46 35 51 35 12 0 89 77 89 89 0 5 11 23 25 39 14 17 31
45 37 64 6 18 20 43 31 56 17 18 22 42 28 135 11 159 -3 332 -29 360 -11 12
-25 38 -31 58 -6 20 -22 46 -35 58 -14 13 -27 34 -30 47 -4 13 -13 24 -21 24
-7 0 -23 14 -35 30 -12 17 -26 30 -32 30 -6 0 -25 13 -44 29 -18 17 -50 34
-70 40 -20 6 -45 18 -56 28 -18 16 -43 18 -197 20 -103 2 -186 -2 -201 -8z"/>
<path d="M6475 6923 c-11 -3 -27 -12 -37 -20 -9 -8 -36 -20 -61 -28 -25 -7
-57 -24 -71 -37 -61 -53 -156 -154 -156 -165 0 -6 -9 -18 -19 -25 -11 -8 -25
-36 -32 -63 -6 -28 -21 -66 -33 -85 -19 -32 -21 -50 -21 -185 0 -145 1 -152
28 -199 15 -27 27 -64 27 -82 0 -25 7 -38 25 -50 14 -9 25 -22 25 -29 0 -6 33
-45 73 -84 101 -102 108 -108 144 -115 17 -4 42 -17 56 -30 22 -20 38 -23 143
-28 66 -3 160 -3 211 1 77 5 95 10 112 28 12 12 36 26 54 31 37 10 57 26 152
121 36 36 65 73 65 82 0 10 9 24 20 32 12 9 25 38 35 83 9 38 24 80 33 94 14
20 17 49 17 145 0 104 -3 125 -22 155 -11 19 -24 56 -28 82 -3 28 -16 60 -31
77 -13 16 -24 36 -24 44 0 9 -10 23 -22 31 -12 9 -27 24 -33 35 -5 10 -30 35
-55 55 -25 20 -54 44 -65 55 -11 10 -36 21 -55 25 -19 3 -45 16 -58 29 -22 21
-32 22 -200 24 -97 1 -186 -1 -197 -4z" />
</g>
</svg>
