<?xml version="1.0" standalone="no"?>
<!DOCTYPE svg PUBLIC "-//W3C//DTD SVG 20010904//EN"
 "http://www.w3.org/TR/2001/REC-SVG-20010904/DTD/svg10.dtd">
<svg version="1.0" xmlns="http://www.w3.org/2000/svg"
 width="300.000000pt" height="300.000000pt" viewBox="0 0 300.000000 300.000000"
 preserveAspectRatio="xMidYMid meet">
<metadata>
Created by potrace 1.14, written by Peter Selinger 2001-2017
</metadata>
<g transform="translate(0.000000,300.000000) scale(0.100000,-0.100000)"
fill="#000000" stroke="none">
<path d="M768 2985 c-118 -22 -256 -79 -358 -148 -66 -45 -186 -163 -236 -233
-57 -79 -118 -209 -146 -309 -23 -80 -23 -84 -23 -790 0 -646 2 -716 18 -779
89 -346 338 -602 682 -698 80 -23 84 -23 790 -23 646 0 716 2 779 18 346 89
602 338 698 682 23 80 23 84 23 790 0 783 2 754 -65 922 -59 147 -190 311
-326 409 -79 57 -209 118 -309 146 -79 22 -90 22 -765 25 -554 1 -700 -1 -762
-12z m1063 -556 c75 -25 132 -92 140 -164 l4 -30 -139 -5 -140 -5 82 -94 c45
-52 82 -98 82 -102 0 -18 -51 -41 -103 -46 -79 -8 -128 17 -208 107 -35 41
-77 89 -94 107 l-30 34 -107 -3 -107 -3 530 -630 c292 -346 539 -648 551 -669
26 -51 34 -142 18 -201 -17 -60 -81 -132 -145 -161 l-50 -24 -625 0 -625 0
-50 24 c-100 46 -147 119 -153 236 -3 63 0 82 20 120 29 56 558 691 569 684 5
-3 21 -26 36 -51 34 -59 37 -143 6 -196 -12 -19 -106 -135 -210 -258 -104
-123 -196 -235 -206 -249 -24 -35 -21 -65 9 -89 26 -21 35 -21 603 -21 643 0
621 -2 621 65 0 29 -14 51 -78 127 -184 220 -768 915 -880 1049 -67 81 -129
163 -137 183 -42 99 16 224 121 261 51 18 643 21 695 4z"/>
</g>
</svg>
