<?xml version="1.0" standalone="no"?>
<!DOCTYPE svg PUBLIC "-//W3C//DTD SVG 20010904//EN"
 "http://www.w3.org/TR/2001/REC-SVG-20010904/DTD/svg10.dtd">
<svg version="1.0" xmlns="http://www.w3.org/2000/svg"
 width="177.000000pt" height="174.000000pt" viewBox="0 0 177.000000 174.000000"
 preserveAspectRatio="xMidYMid meet">

<g transform="translate(0.000000,174.000000) scale(0.100000,-0.100000)"
fill="#fff" stroke="none">
<path d="M427 1649 c-158 -37 -300 -181 -336 -340 -21 -88 -8 -206 31 -282 15
-30 19 -64 22 -175 3 -156 24 -237 91 -359 58 -104 197 -237 305 -291 122 -61
220 -83 356 -81 88 1 118 -2 145 -16 239 -124 554 22 623 290 27 103 16 217
-29 304 -14 27 -17 57 -16 145 2 136 -20 234 -81 356 -54 108 -187 247 -291
305 -122 67 -203 88 -359 91 -111 3 -145 7 -175 22 -75 38 -199 52 -286 31z
m637 -339 c76 -29 150 -99 165 -158 22 -79 -34 -143 -109 -127 -23 5 -40 20
-65 58 -60 94 -98 117 -194 117 -150 0 -226 -121 -112 -179 20 -11 98 -35 174
-55 173 -44 246 -77 296 -131 47 -51 65 -109 58 -186 -15 -164 -168 -269 -394
-269 -158 0 -275 45 -344 133 -64 81 -75 152 -30 198 57 56 113 35 167 -63 21
-38 50 -78 64 -88 87 -62 263 -43 313 34 19 28 22 88 7 117 -17 30 -75 54
-225 93 -164 42 -230 72 -278 126 -102 112 -62 292 80 361 79 38 140 49 258
45 84 -2 124 -8 169 -26z"/>
</g>
</svg>
