<svg width="17" height="15" viewBox="0 0 17 15" fill="none" xmlns="http://www.w3.org/2000/svg">
<path fill-rule="evenodd" clip-rule="evenodd" d="M3.97104 9.09433L0.284317 7.71149C-0.0901373 7.57047 -0.0933906 7.03919 0.279997 6.89448L15.4104 1.02857C15.7312 0.903908 16.0622 1.18632 15.9923 1.52485L13.277 14.6507C13.213 14.9606 12.8515 15.1011 12.5963 14.9147L8.88971 12.2103C8.66459 12.0461 8.35777 12.0549 8.14235 12.2313L6.08731 13.9149C5.84875 14.1109 5.48934 14.0017 5.39803 13.7063L3.97104 9.09433ZM12.3731 3.89813L5.16784 8.35793C4.89168 8.52923 4.76165 8.86438 4.85088 9.17815L5.62992 11.9291C5.68523 12.124 5.96678 12.1041 5.9936 11.9026L6.19616 10.394C6.23435 10.11 6.36918 9.84835 6.57819 9.65282L12.5246 4.09785C12.6358 3.99419 12.5026 3.81822 12.3731 3.89813Z" fill="white"/>
</svg>
